# xmcd
#
# Track frame offsets: 
#        183
#        10198
#        25543
#        45898
#        61255
#        82028
#        95548
#        107975
#        127483
#        145563
#        163565
#        178455
#        194665
#        210905
#        224438
#        237135
#        249383
#        266455
#        280433
#        298313
#
# Disc length: 4211 seconds
#
# Revision: 0
# Processed by: cddbd v1.5.1PL2 Copyright (c) Steve Scherf et al.
# Submitted via: ExactAudioCopy v0.95a5
#
DISCID=2b107114
DTITLE=Various Artist - Sweet sentimental old memory 8
DYEAR=1900
DGENRE=Oldies
TTITLE0=Neil Sedaka - You mean everything to me
TTITLE1=Peabo Bryson and Roberta Flack - Tonight i celebrate my love
TTITLE2=Diana Ross and Lionel Richie - Endless love
TTITLE3=Andy Williams - Love story
TTITLE4=Styx - The best of time
TTITLE5=Cat Stevens - Morning was broken
TTITLE6=Bread - If
TTITLE7=Frank Sinatra - My way
TTITLE8=Peabo Bryson - If ever you're in my arms again
TTITLE9=Thelma Houston - Don't leave me this way
TTITLE10=Julie and Willie Nelson - To all the girl i love before
TTITLE11=Air supply - Every woman in the world
TTITLE12=The Defranco family - Save the last dance for me
TTITLE13=Elvis Presley - Crying in the Chapel
TTITLE14=B.J. Thomas - Raindrops keep fallin' on my head
TTITLE15=[unkn.performer] - Adios amigo
TTITLE16=Gilbert O'Sulivan - Alone again
TTITLE17=Brotherhood of man - Save your kisses for me
TTITLE18=Michael Jackson - One day in your life
TTITLE19=Cliff Richard and Sarah Starship - Only you
EXTD=
EXTT0=
EXTT1=
EXTT2=
EXTT3=
EXTT4=
EXTT5=
EXTT6=
EXTT7=
EXTT8=
EXTT9=
EXTT10=
EXTT11=
EXTT12=
EXTT13=
EXTT14=
EXTT15=
EXTT16=
EXTT17=
EXTT18=
EXTT19=
PLAYORDER=
